<svg xmlns="http://www.w3.org/2000/svg" viewBox="0 0 512 512" xmlns:v="https://vecta.io/nano"><path d="M456 384l32 8v32H368v-40h88z" fill="#0b98a8"/><circle cx="456" cy="424" r="16" fill="#b9b9b9"/><path d="M32 104h80c4.4 0 8 3.6 8 8v88h0-96 0v-88c0-4.4 3.6-8 8-8z" fill="#dbf0f2"/><circle cx="72" cy="152" r="24" fill="#f05656"/><path d="M250.9 219.5L189.1 168H120v-16h72c1.9 0 3.7.7 5.1 1.9l64 53.3-10.2 12.3zm64 10.1l-14.7-6.3 28.5-66.5c1.3-2.9 4.2-4.8 7.4-4.9h40v16h-34.7l-26.5 61.7zM95.5 349.9l-12.8-9.6 30.9-41.1c1.5-2 3.9-3.2 6.4-3.2h33v16h-29l-28.5 37.9z" fill="#c1e3f7"/><path d="M320 240c0-26.5-21.5-48-48-48-18.3 0-35 10.4-43 26.7-16.2-7.2-35.1.1-42.2 16.3-.8 1.8-1.4 3.6-1.9 5.5C161.4 244 144 264.2 144 288c0 26.5 21.5 48 48 48h128c26.5 0 48-21.5 48-48s-21.5-48-48-48z" fill="#0dbcd4"/><path d="M222 304h68c7.7 0 14 6.3 14 14v148c0 7.7-6.3 14-14 14h-68c-7.7 0-14-6.3-14-14V318c0-7.7 6.3-14 14-14z" fill="#dbf0f2"/><path d="M208,336h96v112h-96V336z" fill="#04957c"/><g fill="#2ad3b3"><path d="M278.6 385.4c-12.5-12.5-32.8-12.5-45.3 0L222 374.1c18.7-18.7 49.1-18.7 67.9 0l-11.3 11.3zm-16.9 16.9c-3.1-3.1-8.2-3.1-11.3 0L239 391c9.4-9.4 24.6-9.4 33.9 0l-11.2 11.3zm136-80.9l-11.3-11.3c18.7-18.7 49.1-18.7 67.9 0L443 321.4c-12.6-12.5-32.8-12.5-45.3 0zm28.2 16.9c-3.1-3.1-8.2-3.1-11.3 0L403.3 327c9.4-9.4 24.6-9.4 33.9 0l-11.3 11.3z"/><circle cx="256" cy="416" r="8"/></g><path d="M190 32h132a6.02 6.02 0 0 1 6 6v50h0-144 0V38a6.02 6.02 0 0 1 6-6z" fill="#dbf0f2"/><path d="M216,64h80v24h-80V64z" fill="#fbfbf9"/><path d="M416 208h32l8 24h-48l8-24z" fill="#bdbdbd"/><path d="M450.7 216h-37.3l2.7-8h32l2.6 8z" fill="#cbcbcb"/><path d="M488,176H376v24c0,4.4,3.6,8,8,8h96c4.4,0,8-3.6,8-8V176z" fill="#fff"/><path d="M72 184a31.97 31.97 0 1 1 0-64 31.97 31.97 0 1 1 0 64zm0-48c-8.8 0-16 7.2-16 16s7.2 16 16 16 16-7.2 16-16-7.2-16-16-16z" fill="#fbfbf9"/><path d="M24,200h96v32H24V200z" fill="#fff"/><path d="M32,360h96v72H32V360z" fill="#dbf0f2"/><path d="M80,328l-56,32h112L80,328z" fill="#fff"/><path d="M64,392h32v40H64V392z" fill="#dbf0f2"/><path d="M368,384l16-24h56l16,24H368z" fill="#fff"/><circle cx="400" cy="424" r="16" fill="#b9b9b9"/><g fill="#fff"><circle cx="400" cy="424" r="8"/><circle cx="456" cy="424" r="8"/></g><path d="M280 240h-16v-67.7l-44.4-29.6c-2.2-1.5-3.6-4-3.6-6.7v-24h16v19.7l44.4 29.6c2.2 1.5 3.6 4 3.6 6.7v72z" fill="#c1e3f7"/><circle cx="272" cy="256" r="24" fill="#f05656"/><path d="M184 264h16v16h-16v-16zm32 0h16v16h-16v-16zm96 0h16v16h-16v-16z" fill="#bce1ff"/><path d="M24 200h96v8H24v-8z" fill="#b9b9b9"/><path d="M216,80h80v8h-80V80z" fill="#01afea"/><path d="M32 360h96v8H32v-8z" fill="#c3c3c3"/><path d="M450.7 216h-37.3l2.7-8h32l2.6 8z" fill="#b9b9b9"/><path d="M384 128h96c4.4 0 8 3.6 8 8v48h0-112 0v-48c0-4.4 3.6-8 8-8z" fill="#b7e3ec"/><path d="M400,360h16v24h-16V360z" fill="#0198cb"/><path d="M296,336h8v112h-8V336z" fill="#27c5a7"/><g fill="#0e3947"><path d="M256 376c8.5 0 16.6 3.4 22.6 9.4l11.3-11.3c-18.7-18.7-49.1-18.7-67.9 0l11.3 11.3c6.1-6 14.2-9.4 22.7-9.4zm-17 15l11.3 11.3c3.1-3.1 8.2-3.1 11.3 0L273 391c-9.4-9.3-24.6-9.3-34 0zm215.2-80.9c-18.7-18.7-49.1-18.7-67.9 0l11.3 11.3c12.5-12.5 32.8-12.5 45.3 0l11.3-11.3zM403.3 327l11.3 11.3c3.1-3.1 8.2-3.1 11.3 0l11.3-11.3c-9.3-9.3-24.5-9.3-33.9 0z"/><circle cx="256" cy="416" r="8.5"/><path d="M184 96h144c4.4 0 8-3.6 8-8V38c0-7.7-6.3-14-14-14H190c-7.7 0-14 6.3-14 14v50c0 4.4 3.6 8 8 8zm104-16h-64v-8h64v8zm-96-40h128v40h-16V64c0-4.4-3.6-8-8-8h-80c-4.4 0-8 3.6-8 8v16h-16V40zm288 80h-96c-8.8 0-16 7.2-16 16v16h-32a8.13 8.13 0 0 0-7.4 4.8l-18.2 42.5c-8.4-7.9-19-13.1-30.4-14.8V168c0-2.7-1.3-5.2-3.6-6.7L232 131.7V112h-16v24c0 2.7 1.3 5.2 3.6 6.7l44.4 29.6v12.3c-7.4 1-14.6 3.6-21 7.5l-45.9-38.2a8.05 8.05 0 0 0-5.1-1.9h-64v-40c0-8.8-7.2-16-16-16H32c-8.8 0-16 7.2-16 16v120c0 4.4 3.6 8 8 8h96c4.4 0 8-3.6 8-8v-64h61.1l41.3 34.5c-1.9 2.1-3.6 4.3-5.2 6.6-19.5-4.6-39.4 5.8-46.6 24.5-28 6.8-46.2 33.9-42.1 62.4H120c-2.5 0-4.9 1.2-6.4 3.2l-20.4 27.1-9.3-5.3c-2.5-1.4-5.5-1.4-7.9 0l-56 32c-3.8 2.2-5.2 7.1-3 10.9 1.4 2.5 4.1 4 7 4v64c0 4.4 3.6 8 8 8h96c4.4 0 8-3.6 8-8v-64c4.4 0 8-3.6 8-8 0-2.9-1.5-5.5-4-6.9l-32.7-18.7L124 312h17.4c9.3 19.5 29 32 50.6 32h8v122c0 12.1 9.9 22 22 22h68c12.1 0 22-9.9 22-22V344h8c30.9 0 56-25 56-56 0-28.1-20.7-51.8-48.5-55.5-.9-6.5-2.9-12.7-5.9-18.5l19.7-46H368v32c0 8.8 7.2 16 16 16h20.9l-4.5 13.5c-1.4 4.2.9 8.7 5.1 10.1.8.3 1.7.4 2.5.4h48c4.4 0 8-3.6 8-8 0-.9-.1-1.7-.4-2.5l-4.5-13.5H480c8.8 0 16-7.2 16-16v-64c0-8.8-7.2-16-16-16h0zM112 224H32v-16h80v16zm0-32H32v-80h80v80zM80 337.2l25.9 14.8H54.1L80 337.2zm8 86.8H72v-24h16v24zm32-56v56h-16v-32c0-4.4-3.6-8-8-8H64c-4.4 0-8 3.6-8 8v32H40v-56h80zm152-120c4.4 0 8 3.6 8 8s-3.6 8-8 8-8-3.6-8-8 3.6-8 8-8zm24 218a6.02 6.02 0 0 1-6 6h-68a6.02 6.02 0 0 1-6-6v-10h80v10zm0-26h-80v-96h80v96zm0-112h-80v-10a6.02 6.02 0 0 1 6-6h68a6.02 6.02 0 0 1 6 6v10zm64-40c0 22.1-17.9 40-40 40h-8v-10c0-12.1-9.9-22-22-22h-68c-12.1 0-22 9.9-22 22v10h-8c-22.1 0-40-17.9-40-40 0-19.8 14.5-36.6 34.1-39.6 3.2-.5 5.8-2.9 6.6-6.1 3.1-12.9 16.1-20.8 28.9-17.7 1.4.3 2.8.8 4.1 1.4 3.9 1.7 8.5.1 10.4-3.8 5.4-11.1 15.7-19 27.9-21.5v32.6c-12.5 4.4-19 18.1-14.6 30.6s18.1 19 30.6 14.6 19-18.1 14.6-30.6c-2.4-6.8-7.8-12.2-14.6-14.6v-32.6c18.6 3.8 32 20.2 32 39.2 0 4.4 3.6 8 8 8 22.1.1 40 18 40 40.1h0zm24-152h96v40h-96v-40zm35.1 88l2.7-8h20.5l2.7 8h-25.9zm60.9-24h-96v-8h96v8h0zM72 184a32 32 0 1 0 0-64 32 32 0 1 0 0 64zm0-48c8.8 0 16 7.2 16 16s-7.2 16-16 16-16-7.2-16-16 7.2-16 16-16zm112 128h16v16h-16v-16zm32 0h16v16h-16v-16zm96 0h16v16h-16v-16zm177.9 120.2l-28.7-7.2c-.1-.1-.3-.2-.5-.4l-14.1-21.1c-1.5-2.2-4-3.6-6.7-3.6h-56c-2.7 0-5.2 1.3-6.7 3.6l-16 24c-.9 1.3-1.3 2.9-1.3 4.4v40c0 4.4 3.6 8 8 8h9.4c4.4 12.5 18.1 19 30.6 14.6 6.8-2.4 12.2-7.8 14.6-14.6h10.8c4.4 12.5 18.1 19 30.6 14.6 6.8-2.4 12.2-7.8 14.6-14.6h9.4c4.4 0 8-3.6 8-8v-32c.1-3.6-2.4-6.8-6-7.7h0zM416 376v-8h19.7l5.3 8m-52.7-8H400v8h-17.1l5.4-8zm11.7 64c-4.4 0-8-3.6-8-8s3.6-8 8-8 8 3.6 8 8-3.6 8-8 8zm56 0c-4.4 0-8-3.6-8-8s3.6-8 8-8 8 3.6 8 8-3.6 8-8 8zm24-16h-1.4c-4.4-12.5-18.1-19-30.6-14.6-6.8 2.4-12.2 7.8-14.6 14.6h-10.8c-4.4-12.5-18.1-19-30.6-14.6-6.8 2.4-12.2 7.8-14.6 14.6H376v-24h79l25 6.2V416z"/></g></svg>