<?xml version="1.0" encoding="iso-8859-1"?>
<!-- Generator: Adobe Illustrator 19.0.0, SVG Export Plug-In . SVG Version: 6.00 Build 0)  -->
<svg version="1.1" id="Layer_1" xmlns="http://www.w3.org/2000/svg" xmlns:xlink="http://www.w3.org/1999/xlink" x="0px" y="0px"
	 viewBox="0 0 491.52 491.52" style="enable-background:new 0 0 491.52 491.52;" xml:space="preserve">
<g>
	<g>
		<path d="M491.52,450.56v-204.8H225.28v204.8h122.88v20.48h-61.44v20.48h143.36v-20.48h-61.44v-20.48H491.52z M245.76,266.24
			h225.28v122.88H245.76V266.24z M245.76,430.08V409.6h225.28v20.48H245.76z"/>
	</g>
</g>
<g>
	<g>
		<polygon points="140.36,361.4 125.88,375.88 149.36,399.36 20.48,399.36 20.48,266.24 0,266.24 0,419.84 149.36,419.84 
			125.88,443.32 140.36,457.8 188.56,409.6 		"/>
	</g>
</g>
<g>
	<g>
		<path d="M266.24,204.8V0H0v204.8h122.88v20.48H61.44v20.48H204.8v-20.48h-61.44V204.8H266.24z M20.48,20.48h225.28v122.88H20.48
			V20.48z M20.48,184.32v-20.48h225.28v20.48H20.48z"/>
	</g>
</g>
<g>
	<g>
		<polygon points="342.16,51.2 365.64,27.72 351.16,13.24 302.96,61.44 351.16,109.64 365.64,95.16 342.16,71.68 471.04,71.68 
			471.04,204.8 491.52,204.8 491.52,51.2 		"/>
	</g>
</g>
<g>
</g>
<g>
</g>
<g>
</g>
<g>
</g>
<g>
</g>
<g>
</g>
<g>
</g>
<g>
</g>
<g>
</g>
<g>
</g>
<g>
</g>
<g>
</g>
<g>
</g>
<g>
</g>
<g>
</g>
</svg>
