<svg id="SvgjsSvg1042" width="288" height="288" xmlns="http://www.w3.org/2000/svg" version="1.1" xmlns:xlink="http://www.w3.org/1999/xlink" xmlns:svgjs="http://svgjs.com/svgjs"><defs id="SvgjsDefs1043"></defs><g id="SvgjsG1044"><svg xmlns="http://www.w3.org/2000/svg" enable-background="new 0 0 60 60" viewBox="0 0 60 60" width="288" height="288"><path d="M58.199 48.02c-.549-.103-1.069.241-1.18.781C55.903 54.303 51.574 58 46.249 58c-5.028 0-9.446-3.3-10.948-8H40v-2h-8v8h2v-3.849C36.169 56.833 40.915 60 46.249 60c6.304 0 11.42-4.341 12.731-10.801C59.09 48.657 58.74 48.13 58.199 48.02zM58 40.309C55.75 35.854 51.296 33 46.249 33c-6.109 0-11.541 3.997-13.209 9.721-.154.53.15 1.085.681 1.239.531.155 1.086-.15 1.239-.681C36.358 38.482 41.105 35 46.249 35c4.565 0 8.562 2.766 10.33 7H52v2h8v-8h-2V40.309zM10.5 6C8.019 6 6 8.019 6 10.5S8.019 15 10.5 15s4.5-2.019 4.5-4.5S12.981 6 10.5 6zM10.5 13C9.121 13 8 11.879 8 10.5S9.121 8 10.5 8 13 9.121 13 10.5 11.879 13 10.5 13z" fill="#7fdbff" class="color000 svgShape"></path><circle cx="50" cy="9" r="1" fill="#7fdbff" class="color000 svgShape"></circle><circle cx="46" cy="9" r="1" fill="#7fdbff" class="color000 svgShape"></circle><circle cx="52" cy="12" r="1" fill="#7fdbff" class="color000 svgShape"></circle><circle cx="48" cy="12" r="1" fill="#7fdbff" class="color000 svgShape"></circle><circle cx="42" cy="9" r="1" fill="#7fdbff" class="color000 svgShape"></circle><circle cx="44" cy="12" r="1" fill="#7fdbff" class="color000 svgShape"></circle><circle cx="38" cy="9" r="1" fill="#7fdbff" class="color000 svgShape"></circle><circle cx="40" cy="12" r="1" fill="#7fdbff" class="color000 svgShape"></circle><circle cx="34" cy="9" r="1" fill="#7fdbff" class="color000 svgShape"></circle><circle cx="36" cy="12" r="1" fill="#7fdbff" class="color000 svgShape"></circle><path d="M60,16.392V4.608C60,2.067,57.933,0,55.392,0H4.608C2.067,0,0,2.067,0,4.608v11.783C0,17.86,0.703,19.155,1.777,20
		C0.703,20.845,0,22.14,0,23.608v11.783C0,36.86,0.703,38.155,1.777,39C0.703,39.845,0,41.14,0,42.608v11.783
		C0,56.933,2.067,59,4.608,59H28v-2H4.608C3.17,57,2,55.83,2,54.392V42.608C2,41.17,3.17,40,4.608,40H30v-2H4.608
		C3.17,38,2,36.83,2,35.392V23.608C2,22.17,3.17,21,4.608,21h50.783C56.83,21,58,22.17,58,23.608V31h2v-7.392
		c0-1.469-0.703-2.764-1.777-3.608C59.297,19.155,60,17.86,60,16.392z M4.608,19C3.17,19,2,17.83,2,16.392V4.608
		C2,3.17,3.17,2,4.608,2h50.783C56.83,2,58,3.17,58,4.608v11.783C58,17.83,56.83,19,55.392,19H4.608z" fill="#7fdbff" class="color000 svgShape"></path><path d="M6,29.5c0,2.481,2.019,4.5,4.5,4.5s4.5-2.019,4.5-4.5S12.981,25,10.5,25S6,27.019,6,29.5z M13,29.5
		c0,1.379-1.121,2.5-2.5,2.5S8,30.879,8,29.5S9.121,27,10.5,27S13,28.121,13,29.5z" fill="#7fdbff" class="color000 svgShape"></path><circle cx="50" cy="28" r="1" fill="#7fdbff" class="color000 svgShape"></circle><circle cx="46" cy="28" r="1" fill="#7fdbff" class="color000 svgShape"></circle><circle cx="52" cy="31" r="1" fill="#7fdbff" class="color000 svgShape"></circle><circle cx="48" cy="31" r="1" fill="#7fdbff" class="color000 svgShape"></circle><circle cx="42" cy="28" r="1" fill="#7fdbff" class="color000 svgShape"></circle><circle cx="44" cy="31" r="1" fill="#7fdbff" class="color000 svgShape"></circle><circle cx="38" cy="28" r="1" fill="#7fdbff" class="color000 svgShape"></circle><circle cx="40" cy="31" r="1" fill="#7fdbff" class="color000 svgShape"></circle><circle cx="34" cy="28" r="1" fill="#7fdbff" class="color000 svgShape"></circle><circle cx="36" cy="31" r="1" fill="#7fdbff" class="color000 svgShape"></circle><path d="M6,48.5c0,2.481,2.019,4.5,4.5,4.5s4.5-2.019,4.5-4.5S12.981,44,10.5,44S6,46.019,6,48.5z M13,48.5
		c0,1.379-1.121,2.5-2.5,2.5S8,49.879,8,48.5S9.121,46,10.5,46S13,47.121,13,48.5z" fill="#7fdbff" class="color000 svgShape"></path></svg></g></svg>