<?xml version="1.0" encoding="iso-8859-1"?>
<!-- Generator: Adobe Illustrator 18.0.0, SVG Export Plug-In . SVG Version: 6.00 Build 0)  -->
<!DOCTYPE svg PUBLIC "-//W3C//DTD SVG 1.1//EN" "http://www.w3.org/Graphics/SVG/1.1/DTD/svg11.dtd">
<svg version="1.1" id="Capa_1" xmlns="http://www.w3.org/2000/svg" xmlns:xlink="http://www.w3.org/1999/xlink" x="0px" y="0px"
	 viewBox="0 0 60 60" style="enable-background:new 0 0 60 60;" xml:space="preserve">
<g>
	<path d="M58.199,48.02c-0.549-0.103-1.069,0.241-1.18,0.781C55.903,54.303,51.574,58,46.249,58c-5.028,0-9.446-3.3-10.948-8H39v-2
		h-7v6.983c-1.273-2.382-2-5.098-2-7.983c0-2.497,0.555-4.862,1.526-7H0.835C0.314,40.74,0,41.635,0,42.608v11.783
		C0,56.933,2.067,59,4.608,59h30.362c-1.173-1.176-2.172-2.524-2.963-4H34v-2.849C36.169,56.833,40.915,60,46.249,60
		c6.304,0,11.42-4.341,12.731-10.801C59.09,48.657,58.74,48.13,58.199,48.02z M10.5,53C8.019,53,6,50.981,6,48.5S8.019,44,10.5,44
		s4.5,2.019,4.5,4.5S12.981,53,10.5,53z"/>
	<path d="M58,40.309C55.75,35.854,51.296,33,46.249,33c-6.109,0-11.541,3.997-13.209,9.721c-0.154,0.53,0.15,1.085,0.681,1.239
		c0.531,0.155,1.086-0.15,1.239-0.681C36.358,38.482,41.105,35,46.249,35c4.565,0,8.562,2.766,10.33,7H52v2h8v-7h-2V40.309z"/>
	<path d="M0.835,21C0.314,21.74,0,22.635,0,23.608v11.783C0,36.365,0.314,37.26,0.835,38h31.769c3.009-4.795,8.329-8,14.396-8
		c5.186,0,9.83,2.341,12.95,6.013c0.029-0.204,0.05-0.41,0.05-0.622V23.608c0-0.974-0.314-1.868-0.835-2.608H0.835z M10.5,34
		C8.019,34,6,31.981,6,29.5S8.019,25,10.5,25s4.5,2.019,4.5,4.5S12.981,34,10.5,34z M34,29c-0.552,0-1-0.448-1-1s0.448-1,1-1
		s1,0.448,1,1S34.552,29,34,29z M38,29c-0.552,0-1-0.448-1-1s0.448-1,1-1s1,0.448,1,1S38.552,29,38,29z M42,29c-0.552,0-1-0.448-1-1
		s0.448-1,1-1s1,0.448,1,1S42.552,29,42,29z M46,29c-0.552,0-1-0.448-1-1s0.448-1,1-1s1,0.448,1,1S46.552,29,46,29z M50,29
		c-0.552,0-1-0.448-1-1s0.448-1,1-1s1,0.448,1,1S50.552,29,50,29z"/>
	<path d="M55.392,0H4.608C2.067,0,0,2.067,0,4.608v11.783C0,17.365,0.314,18.26,0.835,19h58.329C59.686,18.26,60,17.365,60,16.392
		V4.608C60,2.067,57.933,0,55.392,0z M10.5,15C8.019,15,6,12.981,6,10.5S8.019,6,10.5,6S15,8.019,15,10.5S12.981,15,10.5,15z M34,10
		c-0.552,0-1-0.448-1-1s0.448-1,1-1s1,0.448,1,1S34.552,10,34,10z M36,13c-0.552,0-1-0.448-1-1s0.448-1,1-1s1,0.448,1,1
		S36.552,13,36,13z M38,10c-0.552,0-1-0.448-1-1s0.448-1,1-1s1,0.448,1,1S38.552,10,38,10z M40,13c-0.552,0-1-0.448-1-1s0.448-1,1-1
		s1,0.448,1,1S40.552,13,40,13z M42,10c-0.552,0-1-0.448-1-1s0.448-1,1-1s1,0.448,1,1S42.552,10,42,10z M44,13c-0.552,0-1-0.448-1-1
		s0.448-1,1-1s1,0.448,1,1S44.552,13,44,13z M46,10c-0.552,0-1-0.448-1-1s0.448-1,1-1s1,0.448,1,1S46.552,10,46,10z M48,13
		c-0.552,0-1-0.448-1-1s0.448-1,1-1s1,0.448,1,1S48.552,13,48,13z M50,10c-0.552,0-1-0.448-1-1s0.448-1,1-1s1,0.448,1,1
		S50.552,10,50,10z M52,13c-0.552,0-1-0.448-1-1s0.448-1,1-1s1,0.448,1,1S52.552,13,52,13z"/>
</g>
<g>
</g>
<g>
</g>
<g>
</g>
<g>
</g>
<g>
</g>
<g>
</g>
<g>
</g>
<g>
</g>
<g>
</g>
<g>
</g>
<g>
</g>
<g>
</g>
<g>
</g>
<g>
</g>
<g>
</g>
</svg>
